<?xml version="1.0" standalone="no"?>
<!DOCTYPE svg PUBLIC "-//W3C//DTD SVG 20010904//EN"
 "http://www.w3.org/TR/2001/REC-SVG-20010904/DTD/svg10.dtd">
<svg version="1.0" xmlns="http://www.w3.org/2000/svg"
 width="800.000000pt" height="800.000000pt" viewBox="0 0 800.000000 800.000000"
 preserveAspectRatio="xMidYMid meet">
<metadata>
Created by potrace 1.14, written by Peter Selinger 2001-2017
</metadata>
<g transform="translate(0.000000,800.000000) scale(0.100000,-0.100000)"
fill="#000000" stroke="none">
<path d="M4407 7963 c-1 -1 -27 -3 -57 -4 -73 -2 -229 -32 -310 -59 -114 -38
-247 -108 -347 -185 -139 -105 -1267 -1239 -1341 -1347 -298 -436 -293 -1001
13 -1417 l43 -58 -15 -74 c-46 -242 -5 -525 109 -758 79 -159 135 -223 630
-719 l472 -472 -385 -388 c-378 -380 -427 -437 -503 -575 -51 -93 -104 -247
-121 -347 -3 -19 -8 -48 -11 -65 -17 -94 -7 -316 20 -434 66 -289 255 -565
502 -731 140 -95 334 -173 489 -197 66 -11 326 -10 395 0 148 23 342 101 483
193 53 36 233 209 697 671 344 343 646 652 672 686 59 79 141 233 174 329 127
369 73 763 -148 1091 l-39 58 15 62 c81 327 28 669 -148 950 -66 107 -150 197
-568 614 -205 204 -395 395 -422 422 l-50 51 308 307 c373 373 403 404 468
501 199 294 257 670 158 1021 -36 128 -87 229 -201 398 -23 33 -141 155 -197
201 -65 54 -181 128 -250 159 -60 27 -183 72 -217 79 -98 20 -133 25 -218 32
-54 4 -99 7 -100 5z m156 -569 c215 -47 400 -205 478 -408 61 -158 60 -328 -2
-486 -44 -111 -102 -179 -453 -529 -321 -321 -346 -344 -363 -330 -10 9 -56
34 -103 56 -263 126 -541 152 -849 79 -153 -36 -335 -134 -483 -259 -36 -31
-68 -57 -71 -57 -2 0 -9 24 -16 53 -39 178 -6 368 91 518 47 74 1172 1204
1251 1258 158 107 343 144 520 105z m-808 -2150 c33 -8 64 -19 68 -23 14 -14
-94 -100 -178 -141 -44 -22 -107 -47 -140 -55 -78 -21 -242 -21 -319 0 -94 25
-94 26 -38 74 177 148 392 199 607 145z m1437 -1314 c44 -56 91 -149 112 -221
17 -59 31 -169 21 -169 -3 0 -21 6 -39 14 -46 19 -194 55 -263 64 -85 10 -289
6 -358 -7 -33 -7 -73 -15 -89 -18 -39 -6 -156 -49 -233 -84 -87 -40 -191 -109
-277 -183 l-73 -64 -475 476 c-425 427 -478 484 -510 547 -34 66 -59 141 -72
211 l-5 31 55 -18 c266 -88 600 -67 868 55 133 61 292 176 391 283 l20 21 445
-446 c246 -246 462 -467 482 -492z m-185 -871 c34 -6 70 -17 79 -24 16 -11 13
-15 -27 -45 -113 -82 -240 -123 -384 -124 -94 0 -245 26 -245 43 0 9 117 86
167 109 42 20 154 49 208 55 48 4 135 -1 202 -14z m506 -496 c25 -105 18 -257
-17 -358 -53 -153 -58 -159 -692 -795 -327 -327 -613 -607 -636 -621 -131 -82
-219 -110 -358 -114 -120 -4 -246 24 -330 74 -107 62 -155 103 -217 186 -171
225 -180 539 -22 772 18 26 198 215 402 419 l369 371 92 -47 c177 -93 333
-132 541 -136 159 -3 249 10 399 58 146 46 346 158 416 233 13 14 26 25 30 25
3 0 14 -30 23 -67z"/>
</g>
</svg>
